<?xml version="1.0" encoding="utf-8"?>
<!-- Generator: Adobe Illustrator 16.0.0, SVG Export Plug-In . SVG Version: 6.00 Build 0)  -->
<!DOCTYPE svg PUBLIC "-//W3C//DTD SVG 1.1//EN" "http://www.w3.org/Graphics/SVG/1.1/DTD/svg11.dtd">
<svg version="1.1" id="Layer_1" xmlns="http://www.w3.org/2000/svg" xmlns:xlink="http://www.w3.org/1999/xlink" x="0px" y="0px"
	 width="34.842px" height="35.041px" viewBox="0 0 34.842 35.041" enable-background="new 0 0 34.842 35.041" xml:space="preserve">
<g>
	<g>
		<circle fill="#FFFFFF" cx="3.392" cy="8.771" r="0.762"/>
	</g>
	<g>
		<circle fill="#FFFFFF" cx="3.392" cy="6.207" r="0.762"/>
	</g>
	<g>
		<circle fill="#FFFFFF" cx="3.392" cy="16.465" r="0.762"/>
	</g>
	<g>
		<circle fill="#FFFFFF" cx="3.392" cy="13.9" r="0.762"/>
	</g>
	<g>
		<circle fill="#FFFFFF" cx="3.392" cy="11.336" r="0.762"/>
	</g>
	<g>
		<circle fill="#FFFFFF" cx="3.392" cy="24.159" r="0.762"/>
	</g>
	<g>
		<circle fill="#FFFFFF" cx="3.392" cy="21.593" r="0.762"/>
	</g>
	<g>
		<circle fill="#FFFFFF" cx="3.392" cy="19.029" r="0.762"/>
	</g>
	<g>
		<circle fill="#FFFFFF" cx="3.392" cy="31.851" r="0.762"/>
	</g>
	<g>
		<circle fill="#FFFFFF" cx="3.392" cy="29.288" r="0.762"/>
	</g>
	<g>
		<circle fill="#FFFFFF" cx="3.392" cy="26.723" r="0.762"/>
	</g>
	<g>
		<circle fill="#FFFFFF" cx="5.949" cy="8.771" r="0.762"/>
	</g>
	<g>
		<circle fill="#FFFFFF" cx="5.949" cy="6.207" r="0.762"/>
	</g>
	<g>
		<circle fill="#FFFFFF" cx="5.949" cy="3.642" r="0.762"/>
	</g>
	<g>
		<circle fill="#FFFFFF" cx="5.949" cy="16.465" r="0.762"/>
	</g>
	<g>
		<circle fill="#FFFFFF" cx="5.949" cy="13.9" r="0.762"/>
	</g>
	<g>
		<circle fill="#FFFFFF" cx="5.949" cy="11.336" r="0.762"/>
	</g>
	<g>
		<circle fill="#FFFFFF" cx="5.949" cy="24.159" r="0.762"/>
	</g>
	<g>
		<circle fill="#FFFFFF" cx="5.949" cy="21.593" r="0.762"/>
	</g>
	<g>
		<circle fill="#FFFFFF" cx="5.949" cy="19.029" r="0.762"/>
	</g>
	<g>
		<circle fill="#FFFFFF" cx="5.949" cy="31.851" r="0.762"/>
	</g>
	<g>
		<circle fill="#FFFFFF" cx="5.949" cy="29.288" r="0.762"/>
	</g>
	<g>
		<circle fill="#FFFFFF" cx="5.949" cy="26.723" r="0.762"/>
	</g>
	<g>
		<circle fill="#FFFFFF" cx="8.506" cy="8.771" r="0.762"/>
	</g>
	<g>
		<circle fill="#FFFFFF" cx="8.506" cy="6.207" r="0.762"/>
	</g>
	<g>
		<circle fill="#FFFFFF" cx="8.506" cy="3.642" r="0.762"/>
	</g>
	<g>
		<circle fill="#FFFFFF" cx="8.506" cy="16.465" r="0.762"/>
	</g>
	<g>
		<circle fill="#FFFFFF" cx="8.506" cy="13.9" r="0.762"/>
	</g>
	<g>
		<circle fill="#FFFFFF" cx="8.506" cy="11.336" r="0.762"/>
	</g>
	<g>
		<circle fill="#FFFFFF" cx="8.506" cy="24.159" r="0.762"/>
	</g>
	<g>
		<circle fill="#FFFFFF" cx="8.506" cy="21.593" r="0.762"/>
	</g>
	<g>
		<circle fill="#FFFFFF" cx="8.506" cy="19.029" r="0.762"/>
	</g>
	<g>
		<circle fill="#FFFFFF" cx="8.506" cy="31.851" r="0.762"/>
	</g>
	<g>
		<circle fill="#FFFFFF" cx="8.506" cy="29.288" r="0.762"/>
	</g>
	<g>
		<circle fill="#FFFFFF" cx="8.506" cy="26.723" r="0.762"/>
	</g>
	<g>
		<circle fill="#FFFFFF" cx="11.062" cy="8.771" r="0.762"/>
	</g>
	<g>
		<circle fill="#FFFFFF" cx="11.062" cy="6.207" r="0.762"/>
	</g>
	<g>
		<circle fill="#FFFFFF" cx="11.062" cy="3.642" r="0.762"/>
	</g>
	<g>
		<circle fill="#FFFFFF" cx="11.062" cy="31.851" r="0.762"/>
	</g>
	<g>
		<circle fill="#FFFFFF" cx="11.062" cy="29.288" r="0.762"/>
	</g>
	<g>
		<circle fill="#FFFFFF" cx="11.062" cy="26.723" r="0.762"/>
	</g>
	<g>
		<circle fill="#FFFFFF" cx="13.619" cy="8.771" r="0.762"/>
	</g>
	<g>
		<circle fill="#FFFFFF" cx="13.619" cy="6.207" r="0.762"/>
	</g>
	<g>
		<circle fill="#FFFFFF" cx="13.619" cy="3.642" r="0.762"/>
	</g>
	<g>
		<circle fill="#FFFFFF" cx="13.619" cy="31.851" r="0.762"/>
	</g>
	<g>
		<circle fill="#FFFFFF" cx="13.619" cy="29.288" r="0.762"/>
	</g>
	<g>
		<circle fill="#FFFFFF" cx="13.619" cy="26.723" r="0.762"/>
	</g>
	<g>
		<circle fill="#FFFFFF" cx="16.175" cy="8.771" r="0.762"/>
	</g>
	<g>
		<circle fill="#FFFFFF" cx="16.175" cy="6.207" r="0.762"/>
	</g>
	<g>
		<circle fill="#FFFFFF" cx="16.175" cy="3.642" r="0.762"/>
	</g>
	<g>
		<circle fill="#FFFFFF" cx="16.175" cy="31.851" r="0.762"/>
	</g>
	<g>
		<circle fill="#FFFFFF" cx="16.175" cy="29.288" r="0.762"/>
	</g>
	<g>
		<circle fill="#FFFFFF" cx="16.175" cy="26.723" r="0.762"/>
	</g>
	<g>
		<circle fill="#FFFFFF" cx="18.732" cy="8.771" r="0.762"/>
	</g>
	<g>
		<circle fill="#FFFFFF" cx="18.732" cy="6.207" r="0.762"/>
	</g>
	<g>
		<circle fill="#FFFFFF" cx="18.732" cy="3.642" r="0.762"/>
	</g>
	<g>
		<circle fill="#FFFFFF" cx="18.732" cy="31.851" r="0.762"/>
	</g>
	<g>
		<circle fill="#FFFFFF" cx="18.732" cy="29.288" r="0.762"/>
	</g>
	<g>
		<circle fill="#FFFFFF" cx="18.732" cy="26.723" r="0.762"/>
	</g>
	<g>
		<circle fill="#FFFFFF" cx="21.289" cy="8.771" r="0.762"/>
	</g>
	<g>
		<circle fill="#FFFFFF" cx="21.289" cy="6.207" r="0.762"/>
	</g>
	<g>
		<circle fill="#FFFFFF" cx="21.289" cy="3.642" r="0.762"/>
	</g>
	<g>
		<circle fill="#FFFFFF" cx="21.289" cy="31.851" r="0.762"/>
	</g>
	<g>
		<circle fill="#FFFFFF" cx="21.289" cy="29.288" r="0.762"/>
	</g>
	<g>
		<circle fill="#FFFFFF" cx="21.289" cy="26.723" r="0.762"/>
	</g>
	<g>
		<circle fill="#FFFFFF" cx="23.845" cy="8.771" r="0.762"/>
	</g>
	<g>
		<circle fill="#FFFFFF" cx="23.845" cy="6.207" r="0.762"/>
	</g>
	<g>
		<circle fill="#FFFFFF" cx="23.845" cy="3.642" r="0.762"/>
	</g>
	<g>
		<circle fill="#FFFFFF" cx="23.845" cy="31.851" r="0.762"/>
	</g>
	<g>
		<circle fill="#FFFFFF" cx="23.845" cy="29.288" r="0.762"/>
	</g>
	<g>
		<circle fill="#FFFFFF" cx="23.845" cy="26.723" r="0.762"/>
	</g>
	<g>
		<circle fill="#FFFFFF" cx="26.402" cy="8.771" r="0.762"/>
	</g>
	<g>
		<circle fill="#FFFFFF" cx="26.402" cy="6.207" r="0.762"/>
	</g>
	<g>
		<circle fill="#FFFFFF" cx="26.402" cy="3.642" r="0.762"/>
	</g>
	<g>
		<circle fill="#FFFFFF" cx="26.402" cy="16.465" r="0.762"/>
	</g>
	<g>
		<circle fill="#FFFFFF" cx="26.402" cy="13.9" r="0.762"/>
	</g>
	<g>
		<circle fill="#FFFFFF" cx="26.402" cy="11.336" r="0.762"/>
	</g>
	<g>
		<circle fill="#FFFFFF" cx="26.402" cy="24.159" r="0.762"/>
	</g>
	<g>
		<circle fill="#FFFFFF" cx="26.402" cy="21.593" r="0.762"/>
	</g>
	<g>
		<circle fill="#FFFFFF" cx="26.402" cy="19.029" r="0.762"/>
	</g>
	<g>
		<circle fill="#FFFFFF" cx="26.402" cy="31.851" r="0.762"/>
	</g>
	<g>
		<circle fill="#FFFFFF" cx="26.402" cy="29.288" r="0.762"/>
	</g>
	<g>
		<circle fill="#FFFFFF" cx="26.402" cy="26.723" r="0.762"/>
	</g>
	<g>
		<circle fill="#FFFFFF" cx="28.958" cy="8.771" r="0.761"/>
	</g>
	<g>
		<circle fill="#FFFFFF" cx="28.958" cy="6.207" r="0.761"/>
	</g>
	<g>
		<circle fill="#FFFFFF" cx="28.958" cy="3.642" r="0.761"/>
	</g>
	<g>
		<circle fill="#FFFFFF" cx="28.958" cy="16.465" r="0.761"/>
	</g>
	<g>
		<circle fill="#FFFFFF" cx="28.958" cy="13.9" r="0.761"/>
	</g>
	<g>
		<circle fill="#FFFFFF" cx="28.958" cy="11.336" r="0.761"/>
	</g>
	<g>
		<circle fill="#FFFFFF" cx="28.958" cy="24.159" r="0.761"/>
	</g>
	<g>
		<circle fill="#FFFFFF" cx="28.958" cy="21.593" r="0.761"/>
	</g>
	<g>
		<circle fill="#FFFFFF" cx="28.958" cy="19.029" r="0.761"/>
	</g>
	<g>
		<circle fill="#FFFFFF" cx="28.958" cy="31.851" r="0.761"/>
	</g>
	<g>
		<circle fill="#FFFFFF" cx="28.958" cy="29.288" r="0.761"/>
	</g>
	<g>
		<circle fill="#FFFFFF" cx="28.958" cy="26.723" r="0.761"/>
	</g>
	<g>
		<circle fill="#FFFFFF" cx="31.515" cy="8.771" r="0.762"/>
	</g>
	<g>
		<circle fill="#FFFFFF" cx="31.515" cy="6.207" r="0.762"/>
	</g>
	<g>
		<circle fill="#FFFFFF" cx="31.515" cy="3.642" r="0.762"/>
	</g>
	<g>
		<circle fill="#FFFFFF" cx="31.515" cy="16.465" r="0.762"/>
	</g>
	<g>
		<circle fill="#FFFFFF" cx="31.515" cy="13.9" r="0.762"/>
	</g>
	<g>
		<circle fill="#FFFFFF" cx="31.515" cy="11.336" r="0.762"/>
	</g>
	<g>
		<circle fill="#FFFFFF" cx="31.515" cy="24.159" r="0.762"/>
	</g>
	<g>
		<circle fill="#FFFFFF" cx="31.515" cy="21.593" r="0.762"/>
	</g>
	<g>
		<circle fill="#FFFFFF" cx="31.515" cy="19.029" r="0.762"/>
	</g>
	<g>
		<circle fill="#FFFFFF" cx="31.515" cy="31.851" r="0.762"/>
	</g>
	<g>
		<circle fill="#FFFFFF" cx="31.515" cy="29.288" r="0.762"/>
	</g>
	<g>
		<circle fill="#FFFFFF" cx="31.515" cy="26.723" r="0.762"/>
	</g>
	<g>
		<path fill="#FFFFFF" d="M34.272,35.041H0.569C0.255,35.041,0,34.787,0,34.472V4.762c0-0.157,0.065-0.307,0.179-0.414l4.239-3.994
			c0.105-0.1,0.245-0.155,0.39-0.155h29.464c0.314,0,0.569,0.255,0.569,0.569v33.704C34.842,34.787,34.587,35.041,34.272,35.041z
			 M1.138,33.904h32.566V1.337H5.034L1.138,5.008V33.904z"/>
	</g>
	<g>
		<path fill="#FFFFFF" d="M24.271,25.122H10.66c-0.314,0-0.569-0.255-0.569-0.569V10.941c0-0.314,0.254-0.568,0.569-0.568h13.612
			c0.314,0,0.568,0.254,0.568,0.568v13.611C24.84,24.867,24.586,25.122,24.271,25.122z M11.229,23.984h12.474V11.511H11.229V23.984z
			"/>
	</g>
</g>
</svg>
