<?xml version="1.0" encoding="utf-8"?>
<!-- Generator: Adobe Illustrator 16.0.0, SVG Export Plug-In . SVG Version: 6.00 Build 0)  -->
<!DOCTYPE svg PUBLIC "-//W3C//DTD SVG 1.1//EN" "http://www.w3.org/Graphics/SVG/1.1/DTD/svg11.dtd">
<svg version="1.1" id="Layer_1" xmlns="http://www.w3.org/2000/svg" xmlns:xlink="http://www.w3.org/1999/xlink" x="0px" y="0px"
	 width="43.921px" height="35.601px" viewBox="0 0 43.921 35.601" enable-background="new 0 0 43.921 35.601" xml:space="preserve">
<g>
	<g>
		<g>
			<g>
				<path fill="#FFFFFF" d="M32.015,10.134c-0.18,0-0.357-0.082-0.473-0.237c-0.146-0.195-0.303-0.391-0.463-0.582
					c-2.348-2.772-5.766-4.384-9.38-4.421c-0.551-0.005-1.113,0.025-1.672,0.094c-0.324,0.04-0.617-0.19-0.657-0.513
					s0.19-0.617,0.513-0.657c0.611-0.075,1.226-0.109,1.829-0.103c3.957,0.041,7.697,1.805,10.265,4.838
					c0.178,0.209,0.348,0.423,0.508,0.638c0.195,0.261,0.142,0.629-0.119,0.825C32.261,10.096,32.136,10.134,32.015,10.134z"/>
			</g>
			<g>
				<path fill="#FFFFFF" d="M33.993,13.978c-0.105,0-0.211-0.028-0.305-0.085l-4.271-2.581c-0.18-0.109-0.288-0.306-0.283-0.516
					c0.004-0.21,0.119-0.403,0.304-0.504l4.371-2.409c0.185-0.102,0.409-0.097,0.589,0.012c0.181,0.109,0.289,0.306,0.285,0.516
					l-0.1,4.989c-0.005,0.21-0.121,0.403-0.306,0.504C34.188,13.954,34.091,13.978,33.993,13.978z M30.9,10.831l2.524,1.526
					l0.059-2.949L30.9,10.831z"/>
			</g>
		</g>
		<g>
			<g>
				<path fill="#FFFFFF" d="M19.734,33.073c-0.05,0-0.099-0.001-0.149-0.001c-3.956-0.04-7.698-1.804-10.266-4.838
					c-0.173-0.204-0.344-0.418-0.507-0.637c-0.195-0.261-0.142-0.631,0.119-0.824c0.26-0.196,0.63-0.143,0.825,0.117
					c0.149,0.2,0.306,0.396,0.463,0.582c2.347,2.773,5.765,4.385,9.379,4.422c0.554,0.004,1.117-0.025,1.672-0.095
					c0.321-0.039,0.618,0.189,0.657,0.513c0.04,0.322-0.189,0.617-0.512,0.656C20.857,33.038,20.292,33.073,19.734,33.073z"/>
			</g>
			<g>
				<path fill="#FFFFFF" d="M7.205,28.978c-0.106,0-0.211-0.028-0.305-0.084c-0.18-0.109-0.289-0.307-0.284-0.517l0.1-4.989
					c0.004-0.211,0.12-0.403,0.305-0.505s0.409-0.097,0.589,0.012l4.271,2.581c0.18,0.109,0.289,0.305,0.284,0.516
					c-0.004,0.211-0.12,0.402-0.305,0.504l-4.371,2.409C7.401,28.954,7.303,28.978,7.205,28.978z M7.873,24.431L7.814,27.38
					l2.583-1.424L7.873,24.431z"/>
			</g>
		</g>
		<g>
			<g>
				<path fill="#FFFFFF" d="M40.38,29.843H25.938c-0.326,0-0.59-0.264-0.59-0.588v-9.153c0-0.325,0.264-0.589,0.59-0.589H40.38
					c0.326,0,0.59,0.264,0.59,0.589v9.153C40.97,29.58,40.706,29.843,40.38,29.843z M26.527,28.666h13.264v-7.975H26.527V28.666z"/>
			</g>
			<g>
				<path fill="#FFFFFF" d="M43.331,35.601H23.255c-0.326,0-0.589-0.265-0.589-0.59v-2.45c0-0.136,0.047-0.267,0.132-0.372
					l2.684-3.305c0.111-0.139,0.279-0.219,0.457-0.219H40.38c0.169,0,0.328,0.072,0.439,0.197l2.951,3.306
					c0.098,0.108,0.15,0.247,0.15,0.393v2.45C43.921,35.336,43.657,35.601,43.331,35.601z M23.844,34.421h18.898v-1.636
					l-2.626-2.942H26.219l-2.375,2.927V34.421z"/>
			</g>
			<g>
				<path fill="#FFFFFF" d="M36.737,33.15H23.255c-0.326,0-0.589-0.264-0.589-0.589s0.263-0.589,0.589-0.589h13.482
					c0.326,0,0.59,0.264,0.59,0.589S37.063,33.15,36.737,33.15z"/>
			</g>
		</g>
		<g>
			<path fill="#FFFFFF" d="M38.049,27.629h-9.511c-0.325,0-0.589-0.265-0.589-0.589v-4.666c0-0.326,0.264-0.59,0.589-0.59h9.511
				c0.325,0,0.589,0.264,0.589,0.59v4.666C38.638,27.365,38.374,27.629,38.049,27.629z M29.128,26.451h8.332v-3.487h-8.332V26.451z"
				/>
		</g>
	</g>
	<g>
		<g>
			<path fill="#FFFFFF" d="M20.284,17.302H6.129C2.75,17.302,0,14.553,0,11.173c0-3.366,2.727-6.107,6.087-6.129
				C7.273,2.009,10.19,0,13.48,0c4.137,0,7.589,3.237,7.913,7.312c2.283,0.509,3.948,2.548,3.948,4.933
				C25.341,15.034,23.072,17.302,20.284,17.302z M8.64,16.124h11.644c2.139,0,3.879-1.74,3.879-3.878
				c0-1.958-1.465-3.613-3.406-3.848c-0.292-0.036-0.513-0.281-0.518-0.575c-0.063-3.664-3.095-6.644-6.758-6.644
				c-2.929,0-5.511,1.869-6.424,4.651c-0.084,0.256-0.328,0.424-0.6,0.404C6.348,6.227,6.24,6.222,6.129,6.222
				c-2.73,0-4.951,2.221-4.951,4.951c0,2.729,2.221,4.95,4.951,4.95H8.64z"/>
		</g>
	</g>
</g>
</svg>
